<svg xmlns="http://www.w3.org/2000/svg" viewBox="0 0 600 80" width="600" height="80"><linearGradient id="s" x1="0" y1="0" x2="0" y2="1"><stop offset="0" stop-color="#ffb27a"/><stop offset="1" stop-color="#f0763f"/></linearGradient><filter id="sh" x="-10%" y="-20%" width="120%" height="150%"><feDropShadow dx="0" dy="6" stdDeviation="6" flood-color="#000" flood-opacity=".35"/></filter><g filter="url(#sh)"><path d="M14 22c40-14 90 6 150-4s110 10 170 0 120-14 170-2 62 4 82 8c8 12-6 20-20 22-26 2-30 24-50 24s-14-20-40-18-24 28-48 26-20-26-52-24-28 30-56 28-20-28-52-24-24 22-48 20-22-22-48-20-24 20-48 18-22-18-44-16S4 40 14 22Z" fill="url(#s)"/><path d="M60 24c80-8 160 6 240 0" stroke="#fff" stroke-opacity=".4" stroke-width="5" fill="none" stroke-linecap="round"/></g></svg>